<?xml version="1.0" encoding="UTF-8"?><svg id="Camada_1" xmlns="http://www.w3.org/2000/svg" viewBox="0 0 282 300"><defs><style>.cls-1,.cls-2{fill:#9e77ed;}.cls-1,.cls-3{fill-rule:evenodd;}.cls-4{fill:#22292f;}.cls-3{fill:#eaddff;}</style></defs><path class="cls-4" d="M.23,276.28v-80.38c0-3.81,1.61-5.27,5.27-5.27h9.08c3.81,0,5.27,1.46,5.27,5.27v78.33c0,6.15,2.2,8.78,7.17,8.78,1.76,0,2.64-.29,3.51-.29,2.78,0,3.81,1.32,3.81,4.54v5.71c0,3.37-1.46,4.98-5.12,5.86-2.2.59-4.98.73-7.47.73-15.08,0-21.52-6.88-21.52-23.28Z"/><path class="cls-4" d="M45.18,266.91v-44.07c0-3.66,1.61-5.27,5.27-5.27h9.08c3.81,0,5.27,1.61,5.27,5.27v42.31c0,12.74,3.95,18.01,13.32,18.01,5.27,0,11.57-2.2,15.81-5.86v-54.46c0-3.66,1.61-5.27,5.27-5.27h9.22c3.66,0,5.12,1.61,5.12,5.27v70.27c0,3.81-1.46,5.27-5.12,5.27h-7.17c-3.66,0-5.12-1.46-5.12-5.12v-1.76c-5.86,5.27-15.37,8.49-23.86,8.49-18.15,0-27.08-10.83-27.08-33.09Z"/><path class="cls-4" d="M128.19,293.12v-70.27c0-3.66,1.61-5.27,5.27-5.27h7.03c3.81,0,5.27,1.46,5.27,5.12v1.61c5.71-4.98,15.08-8.35,24.01-8.35,9.96,0,16.84,3.37,21.23,9.95,8.05-6.59,17.28-9.95,27.08-9.95,18.15,0,27.08,10.83,27.08,33.09v44.07c0,3.81-1.46,5.27-5.12,5.27h-9.22c-3.66,0-5.27-1.46-5.27-5.27v-41.72c0-13.18-3.81-18.59-12.88-18.59-5.27,0-10.98,2.05-17.13,6.44.59,3.22,1.02,6.88,1.02,10.39v43.48c0,3.81-1.61,5.27-5.27,5.27h-9.22c-3.66,0-5.12-1.46-5.12-5.27v-41.72c0-13.18-3.81-18.59-13.03-18.59-5.42,0-11.71,2.2-16.1,6v54.32c0,3.81-1.46,5.27-5.27,5.27h-9.08c-3.66,0-5.27-1.46-5.27-5.27Z"/><path class="cls-4" d="M256,202.35c0-7.32,4.54-11.42,12.88-11.42s12.88,4.1,12.88,11.42-4.54,11.57-12.88,11.57-12.88-4.1-12.88-11.57ZM259.08,293.12v-66.03c0-3.22,1.76-4.68,5.12-4.25,1.76.29,3.07.44,4.68.44s2.93-.15,4.68-.44c3.37-.44,5.12,1.02,5.12,4.25v66.03c0,3.81-1.46,5.27-5.27,5.27h-9.08c-3.66,0-5.27-1.46-5.27-5.27Z"/><path class="cls-2" d="M161.95,113.21c4.79,5.15,7.73,12.05,7.73,19.6s-3.24,15.1-8.39,20.32c-5.21,5.15-12.35,8.39-20.32,8.39s-15.04-3.24-20.26-8.39c-5.15-5.21-8.39-12.41-8.39-20.32s3.24-15.1,8.39-20.26c5.21-5.21,12.35-8.39,20.26-8.39,9.47,0,17.98-3.84,24.15-10.01,6.17-6.17,10.01-14.68,10.01-24.15s-3.84-17.92-10.01-24.09c-6.17-6.17-14.68-10.01-24.15-10.01s-17.92,3.84-24.09,10.01c-6.17,6.17-10.01,14.68-10.01,24.09s3.84,17.98,10.01,24.15c3.36,3.36,7.37,5.99,11.87,7.73-3.36,1.32-6.53,3.24-9.35,5.63-3.3-1.92-6.29-4.25-8.99-6.89-7.85-7.85-12.65-18.64-12.65-30.62s4.79-22.71,12.65-30.56c7.85-7.85,18.64-12.65,30.56-12.65s22.77,4.79,30.62,12.65c7.85,7.85,12.65,18.64,12.65,30.56s-4.79,22.77-12.65,30.62c-7.85,7.79-18.64,12.65-30.62,12.65-5.39,0-10.25,2.22-13.78,5.75-3.54,3.54-5.75,8.39-5.75,13.78s2.22,10.31,5.75,13.84c3.54,3.54,8.39,5.69,13.78,5.69s10.31-2.16,13.84-5.69c3.54-3.54,5.69-8.45,5.69-13.84s-2.16-10.25-5.69-13.78c-.84-.84-1.8-1.62-2.76-2.28,3.42-.84,6.71-2.04,9.89-3.54h0Z"/><path class="cls-1" d="M140.97,121.72c6.17,0,11.15,4.97,11.15,11.09s-4.97,11.15-11.15,11.15-11.09-4.97-11.09-11.15,4.97-11.09,11.09-11.09h0Z"/><path class="cls-3" d="M136.48,14.74V4.49C136.48,2.04,138.51,0,140.97,0h0C143.49,0,145.52,2.04,145.52,4.49v10.25c0,2.46-2.04,4.49-4.55,4.49h0c-2.46,0-4.49-2.04-4.49-4.49h0Z"/><path class="cls-3" d="M165.3,20.02l5.15-8.81c1.2-2.16,4.02-2.94,6.17-1.68h0c2.16,1.26,2.88,4.02,1.62,6.17l-5.09,8.87c-1.26,2.16-4.02,2.88-6.17,1.62h0c-2.16-1.2-2.88-4.02-1.68-6.17h0Z"/><path class="cls-3" d="M187.66,39.07l8.87-5.15c2.16-1.2,4.91-.48,6.17,1.68h0c1.2,2.16.48,4.97-1.68,6.17l-8.81,5.09c-2.16,1.26-4.97.54-6.23-1.62h0c-1.2-2.16-.48-4.97,1.68-6.17h0Z"/><path class="cls-3" d="M197.48,66.7h10.19c2.52,0,4.55,2.04,4.55,4.49h0c0,2.52-2.04,4.55-4.55,4.55h-10.19c-2.46,0-4.49-2.04-4.49-4.55h0c0-2.46,2.04-4.49,4.49-4.49h0Z"/><path class="cls-3" d="M192.21,95.53l8.81,5.09c2.16,1.26,2.88,4.08,1.68,6.23h0c-1.26,2.16-4.02,2.88-6.17,1.62l-8.87-5.09c-2.16-1.26-2.88-4.02-1.68-6.17h0c1.26-2.16,4.08-2.88,6.23-1.68h0Z"/><path class="cls-3" d="M80.98,100.62l8.81-5.09c2.16-1.2,4.97-.48,6.17,1.68h0c1.26,2.16.54,4.91-1.62,6.17l-8.87,5.09c-2.16,1.26-4.91.54-6.17-1.62h0c-1.26-2.16-.48-4.97,1.68-6.23h0Z"/><path class="cls-3" d="M74.33,66.7h10.19c2.46,0,4.49,2.04,4.49,4.49h0c0,2.52-2.04,4.55-4.49,4.55h-10.19c-2.52,0-4.55-2.04-4.55-4.55h0c0-2.46,2.04-4.49,4.55-4.49h0Z"/><path class="cls-3" d="M85.48,33.92l8.87,5.15c2.16,1.2,2.88,4.02,1.62,6.17h0c-1.2,2.16-4.02,2.88-6.17,1.62l-8.81-5.09c-2.16-1.2-2.94-4.02-1.68-6.17h0c1.26-2.16,4.02-2.88,6.17-1.68h0Z"/><path class="cls-3" d="M111.54,11.21l5.09,8.81c1.26,2.16.54,4.97-1.62,6.17h0c-2.16,1.26-4.97.54-6.17-1.62l-5.09-8.87c-1.26-2.16-.54-4.91,1.62-6.17h0c2.16-1.26,4.97-.48,6.17,1.68h0Z"/></svg>