<?xml version="1.0" encoding="UTF-8"?><svg id="Camada_1" xmlns="http://www.w3.org/2000/svg" viewBox="0 0 156 55"><defs><style>.cls-1,.cls-2{fill:#9e77ed;}.cls-1,.cls-3{fill-rule:evenodd;}.cls-4{fill:#22292f;}.cls-3{fill:#eaddff;}</style></defs><path class="cls-4" d="M59.81,46.92v-27.37c0-1.3.55-1.79,1.79-1.79h3.09c1.3,0,1.79.5,1.79,1.79v26.67c0,2.09.75,2.99,2.44,2.99.6,0,.9-.1,1.2-.1.95,0,1.3.45,1.3,1.55v1.94c0,1.15-.5,1.7-1.75,1.99-.75.2-1.7.25-2.54.25-5.14,0-7.33-2.34-7.33-7.93Z"/><path class="cls-4" d="M75.12,43.73v-15.01c0-1.25.55-1.79,1.79-1.79h3.09c1.3,0,1.79.55,1.79,1.79v14.41c0,4.34,1.35,6.13,4.54,6.13,1.79,0,3.94-.75,5.38-1.99v-18.55c0-1.25.55-1.79,1.79-1.79h3.14c1.25,0,1.75.55,1.75,1.79v23.93c0,1.3-.5,1.79-1.75,1.79h-2.44c-1.25,0-1.74-.5-1.74-1.74v-.6c-1.99,1.79-5.23,2.89-8.13,2.89-6.18,0-9.22-3.69-9.22-11.27Z"/><path class="cls-4" d="M103.39,52.66v-23.93c0-1.25.55-1.79,1.79-1.79h2.39c1.3,0,1.79.5,1.79,1.75v.55c1.94-1.7,5.14-2.84,8.18-2.84,3.39,0,5.73,1.15,7.23,3.39,2.74-2.24,5.88-3.39,9.22-3.39,6.18,0,9.22,3.69,9.22,11.27v15.01c0,1.3-.5,1.79-1.74,1.79h-3.14c-1.25,0-1.79-.5-1.79-1.79v-14.21c0-4.49-1.3-6.33-4.39-6.33-1.79,0-3.74.7-5.83,2.19.2,1.1.35,2.34.35,3.54v14.81c0,1.3-.55,1.79-1.79,1.79h-3.14c-1.25,0-1.75-.5-1.75-1.79v-14.21c0-4.49-1.3-6.33-4.44-6.33-1.84,0-3.99.75-5.48,2.04v18.5c0,1.3-.5,1.79-1.79,1.79h-3.09c-1.25,0-1.79-.5-1.79-1.79Z"/><path class="cls-4" d="M146.91,21.75c0-2.49,1.55-3.89,4.39-3.89s4.39,1.4,4.39,3.89-1.55,3.94-4.39,3.94-4.39-1.4-4.39-3.94ZM147.96,52.66v-22.48c0-1.1.6-1.6,1.74-1.45.6.1,1.05.15,1.6.15s1-.05,1.6-.15c1.15-.15,1.74.35,1.74,1.45v22.48c0,1.3-.5,1.79-1.79,1.79h-3.09c-1.25,0-1.79-.5-1.79-1.79Z"/><path class="cls-2" d="M31.7,38.55c1.63,1.76,2.63,4.1,2.63,6.67s-1.1,5.14-2.86,6.92c-1.78,1.76-4.2,2.86-6.92,2.86s-5.12-1.1-6.9-2.86c-1.76-1.78-2.86-4.22-2.86-6.92s1.1-5.14,2.86-6.9c1.78-1.78,4.2-2.86,6.9-2.86,3.22,0,6.12-1.31,8.22-3.41,2.1-2.1,3.41-5,3.41-8.22s-1.31-6.1-3.41-8.2c-2.1-2.1-5-3.41-8.22-3.41s-6.1,1.31-8.2,3.41c-2.1,2.1-3.41,5-3.41,8.2s1.31,6.12,3.41,8.22c1.14,1.14,2.51,2.04,4.04,2.63-1.14.45-2.22,1.1-3.18,1.92-1.12-.65-2.14-1.45-3.06-2.35-2.67-2.67-4.31-6.35-4.31-10.43s1.63-7.73,4.31-10.41c2.67-2.67,6.35-4.31,10.41-4.31s7.76,1.63,10.43,4.31c2.67,2.67,4.31,6.35,4.31,10.41s-1.63,7.76-4.31,10.43c-2.67,2.65-6.35,4.31-10.43,4.31-1.84,0-3.49.76-4.69,1.96-1.2,1.2-1.96,2.86-1.96,4.69s.76,3.51,1.96,4.71c1.2,1.2,2.86,1.94,4.69,1.94s3.51-.73,4.71-1.94c1.2-1.2,1.94-2.88,1.94-4.71s-.73-3.49-1.94-4.69c-.29-.29-.61-.55-.94-.78,1.16-.29,2.29-.69,3.37-1.2h0Z"/><path class="cls-1" d="M24.56,41.45c2.1,0,3.8,1.69,3.8,3.78s-1.69,3.8-3.8,3.8-3.78-1.69-3.78-3.8,1.69-3.78,3.78-3.78h0Z"/><path class="cls-3" d="M23.03,5.02V1.53c0-.84.69-1.53,1.53-1.53h0c.86,0,1.55.69,1.55,1.53v3.49c0,.84-.69,1.53-1.55,1.53h0c-.84,0-1.53-.69-1.53-1.53h0Z"/><path class="cls-3" d="M32.84,6.82l1.76-3c.41-.73,1.37-1,2.1-.57h0c.73.43.98,1.37.55,2.1l-1.73,3.02c-.43.73-1.37.98-2.1.55h0c-.73-.41-.98-1.37-.57-2.1h0Z"/><path class="cls-3" d="M40.45,13.31l3.02-1.76c.73-.41,1.67-.16,2.1.57h0c.41.73.16,1.69-.57,2.1l-3,1.73c-.73.43-1.69.18-2.12-.55h0c-.41-.73-.16-1.69.57-2.1h0Z"/><path class="cls-3" d="M43.8,22.71h3.47c.86,0,1.55.69,1.55,1.53h0c0,.86-.69,1.55-1.55,1.55h-3.47c-.84,0-1.53-.69-1.53-1.55h0c0-.84.69-1.53,1.53-1.53h0Z"/><path class="cls-3" d="M42.01,32.53l3,1.73c.73.43.98,1.39.57,2.12h0c-.43.73-1.37.98-2.1.55l-3.02-1.73c-.73-.43-.98-1.37-.57-2.1h0c.43-.73,1.39-.98,2.12-.57h0Z"/><path class="cls-3" d="M4.13,34.27l3-1.73c.73-.41,1.69-.16,2.1.57h0c.43.73.18,1.67-.55,2.1l-3.02,1.73c-.73.43-1.67.18-2.1-.55h0c-.43-.73-.16-1.69.57-2.12h0Z"/><path class="cls-3" d="M1.86,22.71h3.47c.84,0,1.53.69,1.53,1.53h0c0,.86-.69,1.55-1.53,1.55H1.86c-.86,0-1.55-.69-1.55-1.55H.31c0-.84.69-1.53,1.55-1.53h0Z"/><path class="cls-3" d="M5.66,11.55l3.02,1.76c.73.41.98,1.37.55,2.1h0c-.41.73-1.37.98-2.1.55l-3-1.73c-.73-.41-1-1.37-.57-2.1h0c.43-.73,1.37-.98,2.1-.57h0Z"/><path class="cls-3" d="M14.54,3.82l1.73,3c.43.73.18,1.69-.55,2.1h0c-.73.43-1.69.18-2.1-.55l-1.73-3.02c-.43-.73-.18-1.67.55-2.1h0c.73-.43,1.69-.16,2.1.57h0Z"/></svg>